<?xml version="1.0" encoding="iso-8859-1"?>
<!-- Uploaded to: SVG Repo, www.svgrepo.com, Generator: SVG Repo Mixer Tools -->
<!DOCTYPE svg PUBLIC "-//W3C//DTD SVG 1.1//EN" "http://www.w3.org/Graphics/SVG/1.1/DTD/svg11.dtd">
<svg height="800px" width="800px" version="1.1" id="Capa_1" xmlns="http://www.w3.org/2000/svg" xmlns:xlink="http://www.w3.org/1999/xlink" 
	 viewBox="0 0 223.286 223.286" xml:space="preserve">
<g id="PI&#xD1;ATA">
	<g>
		<path style="fill:#EAFFEA;" d="M59.098,188.252c-0.285,1.261-0.648,2.507-1.126,3.741c-1.717,5.154-3.691,7.286-5.415,7.215
			c-0.795,3.177-1.578,6.243-2.456,9.076c-0.624,2.016-1.158,4.014-1.635,6.025c0.197,0.09,4.811,2.057,13.114,0l3.666-12.988
			c-0.248-0.051-0.508-0.126-0.769-0.22C61.613,199.871,60.035,193.757,59.098,188.252z"/>
		<path style="fill:#EAFFEA;" d="M148.402,201.754c-2.406,0-4.264-5.072-5.485-10.347c-1.858,0.395-4.295-2.92-7.528-7.223
			c-2.1,5.778-1.654,13.243-5.511,11.462l7.21,16.969c7.216,3.806,16.602,0,16.602,0c-0.922-3.078-2.17-6.896-3.755-11.058
			C149.49,201.754,148.98,201.824,148.402,201.754z"/>
		<path style="fill:#630F35;" d="M167.268,186.14c0.649,3.9,0.649,7.157-1.298,10.409c-3.907-1.304-7.158-5.205-10.41-8.457
			c-2.31,2.889-2.055,11.939-5.626,13.465c1.585,4.162,2.833,7.98,3.755,11.058c1.4,4.665,2.068,7.656,2.068,7.656
			c17.817,6.364,21.208-2.545,21.208-2.545s-2.259-11.072-5.421-27.38C170.012,189.404,168.459,187.921,167.268,186.14z"/>
		<path style="fill:#630F35;" d="M52.557,199.208c-2.189-0.075-3.983-3.702-4.346-9.168c-2.603,1.304-7.153,11.061-11.059,9.761
			c-2.603-1.304-1.298-11.709-3.252-14.313c-2.189,1.752-3.786,4.092-5.593,6.035c-1.336,9.589-2.666,19.178-4.06,28.747
			c12.307,6.785,22.908,0,22.908,0c0.414-2.016,0.834-3.995,1.312-5.962c0.478-2.011,1.012-4.009,1.635-6.025
			C50.979,205.451,51.763,202.385,52.557,199.208z"/>
		<path style="fill:#6DD47E;" d="M67.435,165.942c-2.329,2.132-4.257,4.645-5.899,7.413c-1.26,4.837-1.279,9.928-2.438,14.897
			c0.936,5.505,2.515,11.619,5.378,12.849c0.261,0.094,0.521,0.169,0.769,0.22l8.883-31.446l2.679-9.487
			c-1.234,0.426-2.443,0.941-3.639,1.552C71.024,163.04,69.121,164.39,67.435,165.942z"/>
		<path style="fill:#6DD47E;" d="M135.388,184.185c3.232,4.302,5.67,7.617,7.528,7.223c-0.649-2.824-4.148-10.588-4.422-12.771
			c-6.146-9.214-14.057-16.874-23.9-18.95l6.51,15.316c0.694,6.42,1.966,13.967,5.179,17.638c1.509,1.63,2.674,2.584,3.596,3.005
			C133.735,197.427,133.289,189.963,135.388,184.185z"/>
		<path style="fill:#F21073;" d="M158.812,160.763c-1.299,2.603-0.65,10.409-3.901,11.713c-3.907,0.651-7.807-6.509-9.113-9.111
			c-2.156,1.724-4.021,12.293-7.304,15.271c0.274,2.182,3.773,9.947,4.422,12.771c1.221,5.275,3.08,10.347,5.485,10.347
			c0.579,0.07,1.088,0,1.533-0.196c3.571-1.527,3.316-10.576,5.626-13.465c3.252,3.252,6.503,7.153,10.41,8.457
			c1.947-3.252,1.947-6.509,1.298-10.409c1.19,1.781,2.743,3.264,4.276,4.206c3.481,2.143,6.84,1.476,5.485-4.857
			c-0.451-4.033-5.205-7.132-8.558-11.223c-0.541-2.871-1.095-5.816-1.654-8.826C164.106,165.14,160.905,163.156,158.812,160.763z"
			/>
		<path style="fill:#F21073;" d="M33.901,185.489c1.954,2.604,0.65,13.008,3.252,14.313c3.906,1.299,8.456-8.457,11.059-9.761
			c0.363,5.466,2.157,9.093,4.346,9.168c1.725,0.07,3.698-2.062,5.415-7.215c0.477-1.234,0.84-2.48,1.126-3.741
			c1.159-4.97,1.178-10.061,2.438-14.897c1.642-2.768,3.57-5.281,5.899-7.413c-0.948-1.852-1.368-4.168-1.655-6.479
			c-6.509,2.604-13.662,24.073-13.662,3.252c-6.51,1.955-4.556,9.761-9.112,13.013c-1.948-4.556-0.649-10.409-3.252-14.31
			c-3.366,2.246-5.281,5.453-8.246,7.54c-0.471,0.337-0.973,0.648-1.508,0.917c-0.025-0.07-0.044-0.14-0.07-0.216
			c-1.871,7.884-5.612,15.845-4.485,24.289c1.062-0.636,1.991-1.483,2.863-2.424C30.115,189.581,31.712,187.241,33.901,185.489z"/>
		<path style="fill:#F8840E;" d="M151.311,132.419c-0.374-0.394-0.695-0.711-0.956-0.928c-3.907,1.947-4.557,9.755-8.457,9.755
			c-4.556,0-4.556-8.456-8.457-9.105c-9.762,0-3.252,17.562-14.966,8.457c-2.603-2.604,0-10.412-5.854-10.412
			c-3.902-0.649-5.855,9.113-8.457,11.06c-7.159,5.854-7.808,3.252-10.41-5.853c-6.503,7.157-9.755,5.205-14.311-3.902
			c-4.557,2.602-6.51,16.265-12.364,13.007c-3.901-1.948-1.947-13.657-2.602-17.562c-3.902,2.601-7.808,18.218-12.358,16.912
			c-3.907-0.648-1.305-12.357-1.305-14.96c-7.827,1.808-9.52,13.083-15.92,17.849c-0.516,0.388-1.063,0.726-1.642,1.019
			c-0.293-0.318-0.548-0.656-0.77-1.013c-1.998,7.286-4.715,16.069-2.552,22.916c0.026,0.076,0.044,0.146,0.07,0.216
			c0.535-0.268,1.037-0.579,1.508-0.917c2.965-2.087,4.88-5.294,8.246-7.54c2.603,3.9,1.304,9.753,3.252,14.31
			c4.557-3.252,2.602-11.058,9.112-13.013c0,20.821,7.152-0.648,13.662-3.252c0.287,2.311,0.707,4.627,1.655,6.479
			c1.686-1.552,3.588-2.902,5.733-4.002c1.196-0.611,2.405-1.126,3.639-1.552c10.424-3.666,22.03-1.407,32.835-1.253
			c1.706,0.024,3.354,0.215,4.951,0.553c9.844,2.075,17.754,9.735,23.9,18.95c3.283-2.979,5.148-13.548,7.304-15.271
			c1.306,2.602,5.206,9.762,9.113,9.111c3.251-1.304,2.602-9.111,3.901-11.713c2.093,2.393,5.293,4.377,8.005,4.677
			c-1.203-6.492-2.443-13.262-3.659-20.11h0C159.021,141.791,153.919,135.18,151.311,132.419z"/>
		<path style="fill:#6DD47E;" d="M39.068,121.991c0.433-1.246,0.98-2.437,1.712-3.545c3.067-4.645,8.609-6.177,13.987-6.618
			c-0.433-0.559-19.975-25.554-25.855-20.521c-4.983,4.271,4.613,27.311,7.834,34.615c0.623-1.882,1.295-2.333,1.987-3.378
			C38.844,122.363,38.959,122.17,39.068,121.991z"/>
		<path style="fill:#EAFFEA;" d="M149.502,96.824c-1.591,2.228,0,10.182-4.136,9.864c-2.863,0-3.182-5.409-4.454-7
			c-4.455,1.909-4.455,18.136-11.454,9.545c-3.818-4.135-2.227-21.634-9.545-7.954c-0.954,1.909-2.227,10.818-6.045,8.273
			c-1.838-1.152-1.686-5.301-1.456-8.471c-9.145,15.215-36.538,10.589-53.375,10.589c-1.375,0-2.819,0.038-4.27,0.159
			c-5.378,0.44-10.92,1.973-13.987,6.618c-0.732,1.108-1.081,2.386-1.712,3.545c-0.113,0.207-0.224,0.387-0.335,0.554
			c-0.692,1.045-1.364,1.496-1.987,3.378c-0.004-0.005-0.004-0.005-0.002,0.002c-3.983,7.043-7.589,15.614-4.262,20.818
			c0.222,0.357,0.477,0.695,0.77,1.013c0.579-0.293,1.125-0.63,1.642-1.019c6.401-4.766,8.094-16.041,15.92-17.849
			c0,2.603-2.603,14.311,1.305,14.96c4.55,1.306,8.456-14.311,12.358-16.912c0.655,3.905-1.299,15.614,2.602,17.562
			c5.854,3.258,7.808-10.404,12.364-13.007c4.556,9.106,7.807,11.059,14.311,3.902c2.603,9.105,3.251,11.707,10.41,5.853
			c2.603-1.947,4.556-11.709,8.457-11.06c5.854,0,3.251,7.808,5.854,10.412c11.714,9.105,5.204-8.457,14.966-8.457
			c3.901,0.649,3.901,9.105,8.457,9.105c3.9,0,4.55-7.808,8.457-9.755c0.261,0.216,0.582,0.534,0.956,0.928
			c2.608,2.761,7.71,9.372,11.847,12.911h0c1.343,1.152,3.833,3.692,5.511,1.706c3.06-3.621,0.039-9.867-1.583-13.453
			c-1.242-2.742-2.864-5.282-4.52-7.789c-1.536-2.326-3.493-4.712-4.032-7.515c-0.557-2.889-0.944-5.827-1.396-8.735
			C153.861,108.673,150.209,98.237,149.502,96.824z"/>
		<path style="fill:#630F35;" d="M199.028,76.036c0.497-17.855-15.38-26.427-28.654-30.474c-9.442-2.877-17.569-3.461-17.569-3.461
			c-0.038,0.521-0.076,1.049-0.108,1.584c0.917,2.883,1.884,5.739,2.533,8.597c0.318,1.592,1.59,6.682,0,7.637
			c-1.151,0.457-2.221-0.204-3.143-1.337c0,0.485-0.006,0.974-0.006,1.47c2.672,3.826,5.135,9.074,7.604,12.911
			c2.864,5.091,3.182,10.182-2.545,5.728c-2.742-1.827-1.399-4.531-4.353-2.241c0,0.007,0,0.007,0,0.013
			c0.351,3.799,0.835,8.081,1.438,12.726c1.209,2.323,2.698,4.907,3.926,7.426C167.943,98.345,198.315,101.642,199.028,76.036z"/>
		<path style="fill:#F21073;" d="M152.805,42.1c0,0,8.126,0.584,17.569,3.461c0,0,4.683-41.642-2.526-44.034
			c-7.102-2.354-13.019,19.115-13.191,19.751c-0.007,0.006-0.007,0.013-0.007,0.013C154.148,27.292,153.377,34.33,152.805,42.1z"/>
		<path style="fill:#F21073;" d="M152.785,76.462c0-0.006,0-0.006,0-0.013c-0.133,0.097-0.273,0.21-0.419,0.331
			c-1.909,1.909-1.273,7-4.455,7.636c-4.772,0.636-3.818-8.909-9.227-7.636c-4.136,1.272-3.818,14.636-9.226,7.636
			c-2.863-3.5,1.591-13.045-5.409-9.226c-2.545,1.59-2.863,6.362-6.363,6.362c-0.076-0.006-0.153-0.013-0.229-0.025
			c-0.586-0.077-1.044-0.242-1.4-0.477c-1.871,5.49-3.2,11.053-3.461,17.046c0,0.707-0.096,1.776-0.185,2.983
			c-0.229,3.17-0.382,7.319,1.456,8.471c3.818,2.545,5.091-6.364,6.045-8.273c7.318-13.681,5.727,3.818,9.545,7.954
			c6.999,8.592,6.999-7.635,11.454-9.545c1.272,1.591,1.591,7,4.454,7c4.136,0.318,2.545-7.636,4.136-9.864
			c0.706,1.413,4.359,11.849,7.636,12.72c1.158,0.305,2.266-0.585,3.182-3.493c0.835-2.368-0.4-5.835-2.17-9.438
			c-1.228-2.518-2.717-5.103-3.926-7.426C153.62,84.543,153.137,80.26,152.785,76.462z"/>
		<path style="fill:#F8840E;" d="M117.686,81.552c3.5,0,3.818-4.772,6.363-6.362c7-3.818,2.546,5.726,5.409,9.226
			c5.409,7,5.091-6.364,9.226-7.636c5.409-1.273,4.455,8.272,9.227,7.636c3.182-0.636,2.546-5.727,4.455-7.636
			c0.146-0.121,0.286-0.235,0.419-0.331c2.953-2.29,1.61,0.414,4.353,2.241c5.727,4.455,5.409-0.637,2.545-5.728
			c-2.468-3.837-4.931-9.086-7.604-12.911c0-0.496,0.006-0.985,0.006-1.47c-1.629-1.978-2.813-5.402-3.22-6.617
			c-0.318,2.544-1.273,8.271-4.137,9.226c-4.454,1.909-6.363-5.409-7.317-8.59c-0.637,2.544-0.955,9.544-4.772,8.59
			c-3.182-0.955-2.545-7.317-2.863-9.545c-1.616,1.413-5.148,7.299-7.515,9.069c-1.139,0.852-2.011,0.75-2.271-1.253
			c-2.45,4.988-4.85,10.518-4.85,16.047c-0.254,2.043-0.712,4.493,0.916,5.543c0.356,0.235,0.815,0.399,1.4,0.477
			C117.533,81.539,117.61,81.546,117.686,81.552z"/>
		<path style="fill:#6DD47E;" d="M122.262,60.713c2.367-1.77,5.899-7.656,7.515-9.069c0.318,2.229-0.318,8.591,2.863,9.545
			c3.818,0.955,4.136-6.045,4.772-8.59c0.955,3.181,2.863,10.499,7.317,8.59c2.864-0.955,3.818-6.682,4.137-9.226
			c0.407,1.215,1.591,4.639,3.22,6.617c0.922,1.133,1.992,1.794,3.143,1.337c1.59-0.955,0.318-6.044,0-7.637
			c-0.649-2.857-1.616-5.714-2.533-8.597c0.032-0.535,0.07-1.063,0.108-1.584c0.572-7.771,1.343-14.808,1.845-20.808
			c0,0,0-0.007,0.007-0.013C155.751,8.152,155.535,0,148.968,0c-6.465,0-13.522,15.935-19.586,35.176l-0.243-0.076
			c-2.863,7-9.227,15.271-9.227,22.908c0,0.566,0.026,1.05,0.077,1.452C120.251,61.463,121.122,61.565,122.262,60.713z"/>
	</g>
	<g>
		<path style="fill:#D8EBD7;" d="M59.566,190.745c-1.966,8.086-3.461,16.297-4.948,24.493c1.907-0.016,4.231-0.252,6.962-0.929
			l3.666-12.988c-0.248-0.051-0.508-0.126-0.769-0.22C62.042,200.055,60.538,195.477,59.566,190.745z"/>
		<path style="fill:#D8EBD7;" d="M149.934,201.558c-0.444,0.196-0.954,0.266-1.533,0.196c-2.406,0-4.264-5.072-5.485-10.347
			c-1.858,0.395-4.295-2.92-7.528-7.223c-0.486,1.339-0.834,2.766-1.132,4.15c3.951,8.625,7.944,17.171,11.24,25.954
			c4.519-0.183,8.193-1.673,8.193-1.673C152.767,209.538,151.519,205.719,149.934,201.558z"/>
		<path style="fill:#521230;" d="M176.966,217.726c0,0-2.259-11.072-5.421-27.38c-1.533-0.941-3.086-2.424-4.276-4.206
			c0.649,3.9,0.649,7.157-1.298,10.409c-0.462-0.154-0.915-0.348-1.36-0.569c1.561,4.719,3.145,9.426,4.736,14.123
			c1.357,3.732,2.239,7.696,2.559,11.733C175.911,220.485,176.966,217.726,176.966,217.726z"/>
		<path style="fill:#63C072;" d="M73.169,161.94c-1.877,0.962-3.558,2.126-5.081,3.439c-3.764,8.197-6.417,16.708-8.521,25.365
			c0.972,4.732,2.476,9.311,4.911,10.356c0.261,0.094,0.521,0.169,0.769,0.22l8.883-31.446l2.679-9.487
			C75.574,160.814,74.365,161.329,73.169,161.94z"/>
		<path style="fill:#63C072;" d="M135.388,184.185c3.232,4.302,5.67,7.617,7.528,7.223c-0.649-2.824-4.148-10.588-4.422-12.771
			c-4.085-6.124-8.955-11.551-14.648-15.118c3.021,8.519,6.695,16.704,10.411,24.816
			C134.554,186.951,134.902,185.523,135.388,184.185z"/>
		<path style="fill:#DE0F6A;" d="M177.03,185.489c-0.451-4.033-5.205-7.132-8.558-11.223c-0.541-2.871-1.095-5.816-1.654-8.826
			c-2.711-0.3-5.912-2.284-8.005-4.677c-1.001,2.005-0.852,7.087-2.214,9.917c2.529,8.467,5.232,16.901,8.012,25.3
			c0.445,0.222,0.898,0.415,1.36,0.569c1.947-3.252,1.947-6.509,1.298-10.409c1.19,1.781,2.743,3.264,4.276,4.206
			C175.026,192.489,178.385,191.821,177.03,185.489z"/>
		<path style="fill:#DE0F6A;" d="M33.901,185.489c1.954,2.604,0.65,13.008,3.252,14.313c3.906,1.299,8.456-8.457,11.059-9.761
			c0.363,5.466,2.157,9.093,4.346,9.168c1.725,0.07,3.698-2.062,5.415-7.215c0.477-1.234,0.84-2.48,1.126-3.741
			c1.159-4.97,1.178-10.061,2.438-14.897c1.642-2.768,3.57-5.281,5.899-7.413c-0.948-1.852-1.368-4.168-1.655-6.479
			c-6.509,2.604-13.662,24.073-13.662,3.252c-6.51,1.955-4.556,9.761-9.112,13.013c-1.948-4.556-0.649-10.409-3.252-14.31
			c-3.366,2.246-5.281,5.453-8.246,7.54c-0.471,0.337-0.973,0.648-1.508,0.917c-0.025-0.07-0.044-0.14-0.07-0.216
			c-1.871,7.884-5.612,15.845-4.485,24.289c1.062-0.636,1.991-1.483,2.863-2.424C30.115,189.581,31.712,187.241,33.901,185.489z"/>
		<path style="fill:#E47A0D;" d="M166.817,165.44c-1.203-6.492-2.443-13.262-3.659-20.11h0c-4.137-3.539-9.239-10.15-11.847-12.911
			c-0.374-0.394-0.695-0.711-0.956-0.928c-1.311,0.654-2.253,1.971-3.077,3.428c2.58,11.98,5.777,23.902,9.32,35.76
			c1.362-2.83,1.213-7.912,2.214-9.917C160.905,163.156,164.106,165.14,166.817,165.44z"/>
		<path style="fill:#63C072;" d="M48.533,112.974c1.998-0.629,4.127-0.974,6.234-1.146c-0.433-0.559-19.975-25.554-25.855-20.521
			c-0.566,0.485-0.937,1.224-1.157,2.144C35.708,98.836,42.382,105.646,48.533,112.974z"/>
		<path style="fill:#D8EBD7;" d="M150.355,131.491c0.261,0.216,0.582,0.534,0.956,0.928c2.608,2.761,7.71,9.372,11.847,12.911h0
			c1.343,1.152,3.833,3.692,5.511,1.706c3.06-3.621,0.039-9.867-1.583-13.453c-1.242-2.742-2.864-5.282-4.52-7.789
			c-1.536-2.326-3.493-4.712-4.032-7.515c-0.557-2.889-0.944-5.827-1.396-8.735c-3.277-0.871-6.929-11.307-7.636-12.72
			c-1.591,2.228,0,10.182-4.136,9.864c-1.907,0-2.685-2.398-3.368-4.471c1.114,10.944,2.942,21.847,5.28,32.703
			C148.102,133.462,149.044,132.145,150.355,131.491z"/>
		<path style="fill:#521230;" d="M170.374,45.562c-9.442-2.877-17.569-3.461-17.569-3.461c-0.038,0.521-0.076,1.049-0.108,1.584
			c0.479,1.505,0.969,3.003,1.422,4.498c19.323,2.385,37.612,13.612,44.479,32.058c0.236-1.309,0.388-2.703,0.43-4.204
			C199.524,58.18,183.647,49.608,170.374,45.562z"/>
		<path style="fill:#DE0F6A;" d="M167.848,1.528c-0.52-0.172-1.031-0.204-1.536-0.138c5.237,13.701-0.155,27.896-3.613,42.217
			c2.342,0.49,4.95,1.124,7.675,1.955C170.374,45.562,175.057,3.92,167.848,1.528z"/>
		<path style="fill:#DE0F6A;" d="M145.366,106.688c4.136,0.318,2.545-7.636,4.136-9.864c0.706,1.413,4.359,11.849,7.636,12.72
			c1.158,0.305,2.266-0.585,3.182-3.493c0.835-2.368-0.4-5.835-2.17-9.438c-1.228-2.518-2.717-5.103-3.926-7.426
			c-0.604-4.645-1.087-8.927-1.438-12.726c0-0.006,0-0.006,0-0.013c-0.133,0.097-0.273,0.21-0.419,0.331
			c-1.909,1.909-1.273,7-4.455,7.636c-4.033,0.538-3.977-6.195-7.126-7.526c-0.082,8.465,0.356,16.908,1.214,25.326
			C142.681,104.289,143.459,106.688,145.366,106.688z"/>
		<path style="fill:#E47A0D;" d="M147.911,84.416c3.182-0.636,2.546-5.727,4.455-7.636c0.146-0.121,0.286-0.235,0.419-0.331
			c2.953-2.29,1.61,0.414,4.353,2.241c5.727,4.455,5.409-0.637,2.545-5.728c-2.468-3.837-4.931-9.086-7.604-12.911
			c0-0.496,0.006-0.985,0.006-1.47c-1.629-1.978-2.813-5.402-3.22-6.617c-0.318,2.544-1.273,8.271-4.137,9.226
			c-1.239,0.531-2.275,0.332-3.155-0.277c-0.482,5.334-0.739,10.66-0.79,15.978C143.934,78.221,143.878,84.954,147.911,84.416z"/>
		<path style="fill:#63C072;" d="M144.729,61.19c2.864-0.955,3.818-6.682,4.137-9.226c0.407,1.215,1.591,4.639,3.22,6.617
			c0.922,1.133,1.992,1.794,3.143,1.337c1.59-0.955,0.318-6.044,0-7.637c-0.649-2.857-1.616-5.714-2.533-8.597
			c0.032-0.535,0.07-1.063,0.108-1.584c0.572-7.771,1.343-14.808,1.845-20.808c0,0,0-0.007,0.007-0.013
			c1.035-12.411,0.89-20.364-4.676-21.197c2.357,5.583,2.296,13.23,0.366,19.02c-4.734,13.986-7.519,27.927-8.772,41.811
			C142.454,61.522,143.49,61.721,144.729,61.19z"/>
	</g>
</g>
</svg>